<svg width="24" height="24" viewBox="0 0 24 24" fill="none" xmlns="http://www.w3.org/2000/svg">
<path d="M11.9999 0.9646C13.9506 0.9646 15.2465 1.29768 16.1894 1.93726C17.1244 2.57152 17.6131 3.44968 18.0541 4.23413C18.789 5.54185 18.7761 6.64382 18.6093 7.82886C18.5802 8.0352 18.5444 8.24184 18.5097 8.45288C18.5359 8.47742 18.5627 8.50309 18.5858 8.53198L21.5858 12.282C21.844 12.6053 21.7917 13.0766 21.4687 13.3352C21.1452 13.594 20.6727 13.5415 20.414 13.218L18.224 10.4802C18.1802 10.9397 18.1493 11.4402 18.1493 11.9993C18.1494 13.8433 18.2966 15.2984 18.3734 16.5344C18.4469 17.7168 18.4701 18.8066 18.0893 19.6941C17.6102 20.8101 16.674 21.601 15.5946 22.1052C14.5151 22.6096 13.2469 22.8508 11.9999 22.8508C10.753 22.8509 9.48473 22.6095 8.40518 22.1052C7.3259 21.601 6.38943 20.8102 5.91055 19.6941C5.52987 18.8066 5.55282 17.7168 5.62637 16.5344C5.70327 15.2984 5.8505 13.8432 5.8505 11.9993C5.85047 11.4401 5.81824 10.9398 5.77432 10.4802L3.58585 13.218C3.32709 13.5415 2.85461 13.594 2.53116 13.3352C2.20813 13.0766 2.15581 12.6053 2.41397 12.282L5.41397 8.53198C5.43686 8.50337 5.46271 8.47722 5.48868 8.45288C5.45392 8.24193 5.41959 8.03512 5.39054 7.82886C5.22362 6.64356 5.21011 5.5406 5.94571 4.23267C6.38675 3.44848 6.87575 2.57144 7.81046 1.93726C8.75327 1.29763 10.0492 0.964605 11.9999 0.9646ZM11.9999 2.4646C10.2008 2.4646 9.24723 2.77475 8.65274 3.17798C8.05044 3.5866 7.71301 4.15158 7.25382 4.96802C6.74531 5.87216 6.73174 6.59574 6.87589 7.61938C7.02202 8.65694 7.3505 10.0557 7.3505 12.0007C7.35046 13.9066 7.1966 15.4523 7.12345 16.6282C7.04702 17.857 7.06999 18.5914 7.28897 19.1023C7.58317 19.788 8.19077 20.3492 9.03946 20.7458C9.88805 21.1423 10.9337 21.3509 11.9999 21.3508C13.066 21.3508 14.1117 21.1423 14.9604 20.7458C15.8091 20.3492 16.4165 19.7879 16.7108 19.1023C16.93 18.5914 16.9527 17.8571 16.8764 16.6282C16.8033 15.4523 16.6494 13.9065 16.6493 12.0007C16.6493 10.0556 16.9779 8.65696 17.1239 7.61938C17.268 6.59575 17.2544 5.87236 16.746 4.96802C16.2871 4.15174 15.9494 3.58658 15.3471 3.17798C14.7524 2.77482 13.7988 2.4646 11.9999 2.4646ZM13.7226 15.9661C14.0156 15.6764 14.4883 15.6774 14.7802 15.969C15.073 16.2618 15.0728 16.7366 14.7802 17.0295L14.2499 16.4993C14.7765 17.0259 14.7804 17.0307 14.7802 17.031H14.7787V17.0325L14.7699 17.0413C14.7656 17.0455 14.7597 17.0504 14.7538 17.0559C14.742 17.067 14.7266 17.081 14.7084 17.0969C14.6717 17.129 14.6216 17.1701 14.559 17.217C14.4334 17.3112 14.2548 17.4292 14.0229 17.5452C13.5561 17.7785 12.8795 17.9993 11.9999 17.9993C11.1203 17.9993 10.4437 17.7785 9.97696 17.5452C9.74507 17.4292 9.56638 17.3112 9.44083 17.217C9.37819 17.1701 9.32811 17.129 9.29141 17.0969C9.27325 17.081 9.25786 17.067 9.246 17.0559C9.2401 17.0504 9.23422 17.0455 9.22989 17.0413L9.2211 17.0325V17.031H9.21964C9.2194 17.0307 9.2233 17.0259 9.74991 16.4993L9.21964 17.0295C8.927 16.7366 8.92683 16.2618 9.21964 15.969C9.51149 15.6774 9.9842 15.6764 10.2773 15.9661L10.2787 15.9675C10.2889 15.9764 10.3093 15.9942 10.3402 16.0173C10.4021 16.0637 10.5051 16.132 10.6479 16.2034C10.9311 16.345 11.3795 16.4993 11.9999 16.4993C12.6203 16.4993 13.0687 16.345 13.352 16.2034C13.4947 16.132 13.5977 16.0637 13.6596 16.0173C13.6905 15.9942 13.711 15.9764 13.7211 15.9675L13.7226 15.9661ZM10.2743 15.9631L10.2773 15.9661C10.2742 15.9634 10.2719 15.9622 10.2714 15.9617C10.2717 15.962 10.2732 15.9621 10.2743 15.9631ZM13.7226 15.9661L13.7255 15.9631C13.7266 15.9621 13.7281 15.962 13.7284 15.9617C13.7279 15.9622 13.7256 15.9634 13.7226 15.9661ZM11.9999 5.99927C12.8794 5.99927 13.5562 6.22005 14.0229 6.45337C14.255 6.56943 14.4334 6.68876 14.559 6.78296C14.6218 6.83003 14.6717 6.87095 14.7084 6.90308C14.7267 6.91907 14.7419 6.93295 14.7538 6.94409C14.7598 6.94968 14.7656 6.95452 14.7699 6.95874L14.7787 6.96753V6.96899H14.7802C15.073 7.2618 15.0728 7.73663 14.7802 8.02954C14.4873 8.32243 14.0125 8.32243 13.7196 8.02954L13.7211 8.03101C13.7109 8.02206 13.69 8.00549 13.6596 7.98267C13.5977 7.93624 13.4948 7.8666 13.352 7.79517C13.0687 7.65355 12.6202 7.49927 11.9999 7.49927C11.3796 7.49927 10.9312 7.65355 10.6479 7.79517C10.505 7.8666 10.4021 7.93624 10.3402 7.98267C10.3098 8.00549 10.289 8.02206 10.2787 8.03101H10.2802L10.2787 8.02954C9.98579 8.32195 9.51237 8.32227 9.21964 8.02954C8.927 7.73663 8.92683 7.2618 9.21964 6.96899H9.2211V6.96753L9.22989 6.95874C9.23425 6.95452 9.24004 6.94968 9.246 6.94409C9.2579 6.93295 9.27314 6.91907 9.29141 6.90308C9.32813 6.87095 9.37806 6.83003 9.44083 6.78296C9.56642 6.68876 9.74484 6.56943 9.97696 6.45337C10.4437 6.22005 11.1205 5.99927 11.9999 5.99927ZM10.2787 8.03247L10.2743 8.03687C10.273 8.03819 10.2715 8.03824 10.2714 8.03833L10.2787 8.03247Z" fill="white" fill-opacity="0.9"/>
</svg>
